<svg xmlns="http://www.w3.org/2000/svg" viewBox="0 0 24 24" fill="#24292f">
  <path d="M12 .5C5.65.5.5 5.65.5 12a11.5 11.5 0 0 0 7.86 10.92c.58.1.79-.25.79-.56v-2.16c-3.2.7-3.88-1.36-3.88-1.36-.52-1.33-1.28-1.68-1.28-1.68-1.05-.72.08-.7.08-.7 1.16.08 1.77 1.2 1.77 1.2 1.03 1.76 2.7 1.25 3.35.96.1-.75.4-1.25.72-1.53-2.56-.29-5.25-1.28-5.25-5.7 0-1.26.45-2.3 1.2-3.1-.12-.29-.52-1.46.12-3.05 0 0 .98-.31 3.2 1.18a11.13 11.13 0 0 1 5.82 0c2.22-1.49 3.2-1.18 3.2-1.18.64 1.59.24 2.76.12 3.05.75.8 1.2 1.84 1.2 3.1 0 4.43-2.7 5.4-5.27 5.68.42.36.78 1.06.78 2.14v3.17c0 .31.21.67.8.56A11.5 11.5 0 0 0 23.5 12C23.5 5.65 18.35.5 12 .5Z"/>
</svg>
