<?xml version="1.0" encoding="UTF-8" standalone="no"?>
<svg
   width="300"
   zoomAndPan="magnify"
   viewBox="0 0 224.87999 225"
   height="300"
   preserveAspectRatio="xMidYMid"
   version="1.0"
   id="svg35"
   sodipodi:docname="Design sem nome.svg"
   xml:space="preserve"
   inkscape:export-filename="obs-toys.svg"
   inkscape:export-xdpi="96"
   inkscape:export-ydpi="96"
   xmlns:inkscape="http://www.inkscape.org/namespaces/inkscape"
   xmlns:sodipodi="http://sodipodi.sourceforge.net/DTD/sodipodi-0.dtd"
   xmlns:xlink="http://www.w3.org/1999/xlink"
   xmlns="http://www.w3.org/2000/svg"
   xmlns:svg="http://www.w3.org/2000/svg"><sodipodi:namedview
     id="namedview35"
     pagecolor="#ffffff"
     bordercolor="#000000"
     borderopacity="0.25"
     inkscape:showpageshadow="2"
     inkscape:pageopacity="0.0"
     inkscape:pagecheckerboard="0"
     inkscape:deskcolor="#d1d1d1"><inkscape:page
       x="0"
       y="0"
       width="224.87999"
       height="225"
       id="page2"
       margin="0"
       bleed="0" /></sodipodi:namedview><defs
     id="defs15"><linearGradient
       id="linearGradient48"
       inkscape:collect="always"><stop
         style="stop-color:#666666;stop-opacity:1"
         offset="0"
         id="stop48" /><stop
         style="stop-color:#00ffff;stop-opacity:1"
         offset="0.18283327"
         id="stop50" /><stop
         style="stop-color:#d40000;stop-opacity:1"
         offset="0.53289366"
         id="stop51" /><stop
         style="stop-color:#0000ff;stop-opacity:1"
         offset="0.72042716"
         id="stop52" /><stop
         style="stop-color:#ff00ff;stop-opacity:1"
         offset="1"
         id="stop49" /></linearGradient><clipPath
       id="ae9559667d"><path
         d="M 16.59375,99 H 116 V 212.12891 H 16.59375 Z m 0,0"
         clip-rule="nonzero"
         id="path2" /></clipPath><clipPath
       id="4a3b2ba3b1"><path
         d="M 16.59375,125 H 116 v 34 H 16.59375 Z m 0,0"
         clip-rule="nonzero"
         id="path3" /></clipPath><clipPath
       id="3e6075bc97"><path
         d="m 63,152 h 7 v 60.12891 h -7 z m 0,0"
         clip-rule="nonzero"
         id="path4" /></clipPath><clipPath
       id="423a79db39"><path
         d="m 109,99 h 99.49219 V 212.12891 H 109 Z m 0,0"
         clip-rule="nonzero"
         id="path5" /></clipPath><clipPath
       id="9c573644c2"><path
         d="m 109,125 h 99.49219 v 34 H 109 Z m 0,0"
         clip-rule="nonzero"
         id="path6" /></clipPath><clipPath
       id="ccb5866f09"><path
         d="m 156,152 h 6 v 60.12891 h -6 z m 0,0"
         clip-rule="nonzero"
         id="path7" /></clipPath><clipPath
       id="4fd87e83ed"><path
         d="M 16.59375,99 H 116 V 212.12891 H 16.59375 Z m 0,0"
         clip-rule="nonzero"
         id="path9" /></clipPath><clipPath
       id="6bd1ad4bec"><path
         d="M 16.59375,125 H 116 v 34 H 16.59375 Z m 0,0"
         clip-rule="nonzero"
         id="path10" /></clipPath><clipPath
       id="0d50daea0e"><path
         d="m 63,152 h 7 v 60.12891 h -7 z m 0,0"
         clip-rule="nonzero"
         id="path11" /></clipPath><clipPath
       id="5ac9f15132"><path
         d="m 109,99 h 99.49219 V 212.12891 H 109 Z m 0,0"
         clip-rule="nonzero"
         id="path12" /></clipPath><clipPath
       id="f1f2382feb"><path
         d="m 109,125 h 99.49219 v 34 H 109 Z m 0,0"
         clip-rule="nonzero"
         id="path13" /></clipPath><clipPath
       id="cadaab14a1"><path
         d="m 156,152 h 6 v 60.12891 h -6 z m 0,0"
         clip-rule="nonzero"
         id="path14" /></clipPath><linearGradient
       inkscape:collect="always"
       xlink:href="#linearGradient48"
       id="linearGradient49"
       x1="-264.86551"
       y1="357.40277"
       x2="148.99898"
       y2="101.63112"
       gradientUnits="userSpaceOnUse" /><linearGradient
       inkscape:collect="always"
       xlink:href="#linearGradient48"
       id="linearGradient52"
       gradientUnits="userSpaceOnUse"
       x1="-264.86551"
       y1="357.40277"
       x2="148.99898"
       y2="101.63112" /><linearGradient
       inkscape:collect="always"
       xlink:href="#linearGradient48"
       id="linearGradient53"
       gradientUnits="userSpaceOnUse"
       x1="-264.86551"
       y1="357.40277"
       x2="148.99898"
       y2="101.63112" /><linearGradient
       inkscape:collect="always"
       xlink:href="#linearGradient48"
       id="linearGradient54"
       gradientUnits="userSpaceOnUse"
       x1="-264.86551"
       y1="357.40277"
       x2="148.99898"
       y2="101.63112" /><linearGradient
       inkscape:collect="always"
       xlink:href="#linearGradient48"
       id="linearGradient55"
       gradientUnits="userSpaceOnUse"
       x1="-264.86551"
       y1="357.40277"
       x2="148.99898"
       y2="101.63112" /><linearGradient
       inkscape:collect="always"
       xlink:href="#linearGradient48"
       id="linearGradient56"
       gradientUnits="userSpaceOnUse"
       x1="-264.86551"
       y1="357.40277"
       x2="148.99898"
       y2="101.63112" /><linearGradient
       inkscape:collect="always"
       xlink:href="#linearGradient48"
       id="linearGradient57"
       gradientUnits="userSpaceOnUse"
       x1="-264.86551"
       y1="357.40277"
       x2="148.99898"
       y2="101.63112" /><linearGradient
       inkscape:collect="always"
       xlink:href="#linearGradient48"
       id="linearGradient58"
       gradientUnits="userSpaceOnUse"
       x1="-264.86551"
       y1="357.40277"
       x2="148.99898"
       y2="101.63112" /><linearGradient
       inkscape:collect="always"
       xlink:href="#linearGradient48"
       id="linearGradient59"
       gradientUnits="userSpaceOnUse"
       x1="-264.86551"
       y1="357.40277"
       x2="148.99898"
       y2="101.63112" /><linearGradient
       inkscape:collect="always"
       xlink:href="#linearGradient48"
       id="linearGradient60"
       gradientUnits="userSpaceOnUse"
       x1="-264.86551"
       y1="357.40277"
       x2="148.99898"
       y2="101.63112" /><linearGradient
       inkscape:collect="always"
       xlink:href="#linearGradient48"
       id="linearGradient61"
       gradientUnits="userSpaceOnUse"
       x1="-264.86551"
       y1="357.40277"
       x2="148.99898"
       y2="101.63112" /><linearGradient
       inkscape:collect="always"
       xlink:href="#linearGradient48"
       id="linearGradient62"
       gradientUnits="userSpaceOnUse"
       x1="-264.86551"
       y1="357.40277"
       x2="148.99898"
       y2="101.63112" /><linearGradient
       inkscape:collect="always"
       xlink:href="#linearGradient48"
       id="linearGradient63"
       gradientUnits="userSpaceOnUse"
       x1="-264.86551"
       y1="357.40277"
       x2="148.99898"
       y2="101.63112" /><linearGradient
       inkscape:collect="always"
       xlink:href="#linearGradient48"
       id="linearGradient64"
       gradientUnits="userSpaceOnUse"
       x1="-264.86551"
       y1="357.40277"
       x2="148.99898"
       y2="101.63112" /><linearGradient
       inkscape:collect="always"
       xlink:href="#linearGradient48"
       id="linearGradient65"
       gradientUnits="userSpaceOnUse"
       x1="-264.86551"
       y1="357.40277"
       x2="148.99898"
       y2="101.63112" /><linearGradient
       inkscape:collect="always"
       xlink:href="#linearGradient48"
       id="linearGradient66"
       gradientUnits="userSpaceOnUse"
       x1="-264.86551"
       y1="357.40277"
       x2="148.99898"
       y2="101.63112" /><linearGradient
       inkscape:collect="always"
       xlink:href="#linearGradient48"
       id="linearGradient67"
       gradientUnits="userSpaceOnUse"
       x1="-264.86551"
       y1="357.40277"
       x2="148.99898"
       y2="101.63112" /><linearGradient
       inkscape:collect="always"
       xlink:href="#linearGradient48"
       id="linearGradient68"
       gradientUnits="userSpaceOnUse"
       x1="-264.86551"
       y1="357.40277"
       x2="148.99898"
       y2="101.63112" /><linearGradient
       inkscape:collect="always"
       xlink:href="#linearGradient48"
       id="linearGradient69"
       gradientUnits="userSpaceOnUse"
       x1="-264.86551"
       y1="357.40277"
       x2="148.99898"
       y2="101.63112" /><linearGradient
       inkscape:collect="always"
       xlink:href="#linearGradient48"
       id="linearGradient70"
       gradientUnits="userSpaceOnUse"
       x1="-264.86551"
       y1="357.40277"
       x2="148.99898"
       y2="101.63112" /><linearGradient
       inkscape:collect="always"
       xlink:href="#linearGradient48"
       id="linearGradient71"
       gradientUnits="userSpaceOnUse"
       x1="-264.86551"
       y1="357.40277"
       x2="148.99898"
       y2="101.63112" /><linearGradient
       inkscape:collect="always"
       xlink:href="#linearGradient48"
       id="linearGradient72"
       gradientUnits="userSpaceOnUse"
       x1="-264.86551"
       y1="357.40277"
       x2="148.99898"
       y2="101.63112" /><linearGradient
       inkscape:collect="always"
       xlink:href="#linearGradient48"
       id="linearGradient73"
       gradientUnits="userSpaceOnUse"
       x1="-264.86551"
       y1="357.40277"
       x2="148.99898"
       y2="101.63112" /><linearGradient
       inkscape:collect="always"
       xlink:href="#linearGradient48"
       id="linearGradient74"
       gradientUnits="userSpaceOnUse"
       x1="-264.86551"
       y1="357.40277"
       x2="148.99898"
       y2="101.63112" /><linearGradient
       inkscape:collect="always"
       xlink:href="#linearGradient48"
       id="linearGradient75"
       gradientUnits="userSpaceOnUse"
       x1="-264.86551"
       y1="357.40277"
       x2="148.99898"
       y2="101.63112" /><linearGradient
       id="linearGradient41"
       inkscape:swatch="gradient"><stop
         style="stop-color:#000000;stop-opacity:1;"
         offset="0"
         id="stop261" /><stop
         style="stop-color:#000000;stop-opacity:0;"
         offset="1"
         id="stop262" /></linearGradient><linearGradient
       x1="22.1875"
       y1="23.0625"
       x2="3.2276375"
       y2="3.0725682"
       gradientUnits="userSpaceOnUse"
       gradientTransform="matrix(9.5015683,0,0,9.5015683,-1.5788249,-1.5188235)"
       spreadMethod="pad"
       id="linearGradient3"><stop
         style="stop-opacity:1;stop-color:#808080"
         offset="0"
         id="stop1" /><stop
         style="stop-opacity:1;stop-color:#e6e6e6"
         offset="1"
         id="stop2" /></linearGradient></defs><path
     id="path3-3"
     d="m 70.620426,7.9827455 h 83.639154 c 34.73772,0 62.69767,27.9599495 62.69767,62.6976765 v 83.639148 c 0,34.73774 -27.95995,62.69768 -62.69767,62.69768 H 70.620426 c -34.737735,0 -62.6976819,-27.95994 -62.6976819,-62.69768 V 70.680422 c 0,-34.737727 27.9599469,-62.6976765 62.6976819,-62.6976765 z"
     style="fill:url(#linearGradient3);stroke:none;stroke-width:12.6688" /><g
     id="g48"
     style="fill:url(#linearGradient49);fill-opacity:1"
     transform="matrix(0.8903902,0,0,0.8903902,219.85853,-81.749999)"><g
       clip-path="url(#ae9559667d)"
       id="g18"
       transform="translate(-233.18695,110.10038)"
       style="fill:url(#linearGradient53);fill-opacity:1"><path
         fill="#000000"
         d="m 66.113281,212.10156 c -0.519531,0 -1.03125,-0.13672 -1.480469,-0.39453 L 18.203125,184.92578 c -0.449219,-0.25781 -0.824219,-0.63281 -1.085937,-1.08203 -0.257813,-0.45313 -0.394532,-0.96094 -0.394532,-1.48047 v -53.5625 c 0,-0.51953 0.136719,-1.03125 0.394532,-1.48047 0.261718,-0.44922 0.636718,-0.82422 1.085937,-1.08203 L 64.632812,99.457031 c 0.449219,-0.257812 0.960938,-0.398437 1.480469,-0.398437 0.523438,0 1.035157,0.140625 1.484375,0.398437 l 46.429684,26.781249 c 0.44922,0.25781 0.82422,0.63281 1.08594,1.08203 0.25781,0.44922 0.39453,0.96094 0.39453,1.48047 v 53.5625 c 0,0.51953 -0.13672,1.02734 -0.39453,1.48047 -0.26172,0.44922 -0.63672,0.82422 -1.08594,1.08203 l -46.429684,26.78125 c -0.449218,0.25781 -0.960937,0.39453 -1.484375,0.39453 z M 22.652344,180.65234 66.113281,205.71875 109.57813,180.65234 V 130.51172 L 66.113281,105.44141 22.652344,130.51172 Z m 0,0"
         fill-opacity="1"
         fill-rule="nonzero"
         id="path18"
         style="fill:url(#linearGradient52);fill-opacity:1" /></g><g
       clip-path="url(#4a3b2ba3b1)"
       id="g19"
       transform="translate(-233.18695,110.10038)"
       style="fill:url(#linearGradient55);fill-opacity:1"><path
         fill="#000000"
         d="m 66.113281,158.54297 c -0.519531,0 -1.03125,-0.13672 -1.480469,-0.39453 L 18.203125,131.36719 c -0.335937,-0.19532 -0.632813,-0.45313 -0.871094,-0.76172 -0.234375,-0.3086 -0.410156,-0.66016 -0.511719,-1.03516 -0.09766,-0.3789 -0.125,-0.76953 -0.07422,-1.15625 0.05078,-0.38281 0.175781,-0.75781 0.371094,-1.09375 0.195312,-0.33593 0.457031,-0.63281 0.765624,-0.86718 0.308594,-0.23829 0.660157,-0.41016 1.035157,-0.51172 0.378906,-0.10157 0.769531,-0.12891 1.15625,-0.0742 0.386719,0.0469 0.757812,0.17578 1.09375,0.37109 L 66.113279,152.16018 111.0625,126.2383 c 0.67969,-0.39453 1.48828,-0.5 2.25,-0.29687 0.75781,0.20312 1.40625,0.69922 1.80078,1.3789 0.39063,0.67969 0.5,1.48828 0.29688,2.25 -0.20703,0.75781 -0.70313,1.40625 -1.38282,1.79688 l -46.429686,26.78125 c -0.449218,0.25781 -0.960937,0.39453 -1.484375,0.39453 z m 0,0"
         fill-opacity="1"
         fill-rule="nonzero"
         id="path19"
         style="fill:url(#linearGradient54);fill-opacity:1" /></g><g
       clip-path="url(#3e6075bc97)"
       id="g20"
       transform="translate(-233.18695,110.10038)"
       style="fill:url(#linearGradient57);fill-opacity:1"><path
         fill="#000000"
         d="m 66.113281,212.10156 c -0.785156,0 -1.539062,-0.30859 -2.09375,-0.86719 -0.558593,-0.55468 -0.871093,-1.30859 -0.871093,-2.09375 v -53.55859 c 0,-0.78516 0.3125,-1.53906 0.871093,-2.09375 0.554688,-0.55859 1.308594,-0.86719 2.09375,-0.86719 0.789063,0 1.542969,0.3086 2.097657,0.86719 0.558593,0.55469 0.871093,1.30859 0.871093,2.09375 v 53.55859 c 0,0.78516 -0.3125,1.53907 -0.871093,2.09375 -0.554688,0.5586 -1.308594,0.86719 -2.097657,0.86719 z m 0,0"
         fill-opacity="1"
         fill-rule="nonzero"
         id="path20"
         style="fill:url(#linearGradient56);fill-opacity:1" /></g><g
       clip-path="url(#423a79db39)"
       id="g21"
       transform="translate(-233.18695,110.10038)"
       style="fill:url(#linearGradient59);fill-opacity:1"><path
         fill="#000000"
         d="m 158.97266,212.10156 c -0.51954,0 -1.03125,-0.13672 -1.48047,-0.39453 L 111.0625,184.92578 c -0.45312,-0.25781 -0.82422,-0.63281 -1.08594,-1.08203 -0.26172,-0.45313 -0.39843,-0.96094 -0.39843,-1.48047 v -53.5625 c 0,-0.51953 0.13671,-1.03125 0.39843,-1.48047 0.26172,-0.44922 0.63282,-0.82422 1.08594,-1.08203 l 46.42969,-26.781249 c 0.44922,-0.257812 0.96093,-0.398437 1.48047,-0.398437 0.51953,0 1.03125,0.140625 1.48437,0.398437 l 46.42969,26.781249 c 0.44922,0.25781 0.82422,0.63281 1.08203,1.08203 0.26172,0.44922 0.39844,0.96094 0.39844,1.48047 v 53.5625 c 0,0.51953 -0.13672,1.02734 -0.39844,1.48047 -0.25781,0.44922 -0.63281,0.82422 -1.08203,1.08203 l -46.42969,26.78125 c -0.45312,0.25781 -0.96484,0.39453 -1.48437,0.39453 z m -43.46485,-31.44922 43.46485,25.06641 43.46484,-25.06641 v -50.14062 l -43.46484,-25.07031 -43.46485,25.07031 z m 0,0"
         fill-opacity="1"
         fill-rule="nonzero"
         id="path21"
         style="fill:url(#linearGradient58);fill-opacity:1" /></g><g
       clip-path="url(#9c573644c2)"
       id="g22"
       transform="translate(-233.18695,110.10038)"
       style="fill:url(#linearGradient61);fill-opacity:1"><path
         fill="#000000"
         d="m 158.97266,158.54297 c -0.51954,0 -1.03125,-0.13672 -1.48047,-0.39453 L 111.0625,131.36719 c -0.33984,-0.19532 -0.63281,-0.45313 -0.87109,-0.76172 -0.23828,-0.3086 -0.41016,-0.66016 -0.51172,-1.03516 -0.10156,-0.3789 -0.125,-0.76953 -0.0742,-1.15625 0.0508,-0.38281 0.17578,-0.75781 0.37109,-1.09375 0.19532,-0.33593 0.45313,-0.63281 0.76172,-0.86718 0.3086,-0.23829 0.66406,-0.41016 1.03906,-0.51172 0.375,-0.10157 0.76954,-0.12891 1.15235,-0.0742 0.38672,0.0469 0.76172,0.17578 1.09765,0.37109 l 44.94532,25.92188 44.94531,-25.92188 c 0.33984,-0.19531 0.71094,-0.32422 1.09765,-0.37109 0.38672,-0.0547 0.77735,-0.0273 1.15235,0.0742 0.3789,0.10156 0.73047,0.27343 1.03906,0.51172 0.30859,0.23437 0.57031,0.53125 0.76172,0.86718 0.19531,0.33594 0.32422,0.71094 0.375,1.09375 0.0508,0.38672 0.0234,0.77735 -0.0781,1.15625 -0.10156,0.375 -0.27343,0.72656 -0.51171,1.03516 -0.23438,0.30859 -0.53125,0.5664 -0.86719,0.76172 l -46.42969,26.78125 c -0.45312,0.25781 -0.96484,0.39453 -1.48437,0.39453 z m 0,0"
         fill-opacity="1"
         fill-rule="nonzero"
         id="path22"
         style="fill:url(#linearGradient60);fill-opacity:1" /></g><g
       clip-path="url(#ccb5866f09)"
       id="g23"
       transform="translate(-233.18695,110.10038)"
       style="fill:url(#linearGradient63);fill-opacity:1"><path
         fill="#000000"
         d="m 158.97266,212.10156 c -0.78516,0 -1.53907,-0.30859 -2.09766,-0.86719 -0.55469,-0.55468 -0.86719,-1.30859 -0.86719,-2.09375 v -53.55859 c 0,-0.78516 0.3125,-1.53906 0.86719,-2.09375 0.55859,-0.55859 1.3125,-0.86719 2.09766,-0.86719 0.78515,0 1.54296,0.3086 2.09765,0.86719 0.55469,0.55469 0.86719,1.30859 0.86719,2.09375 v 53.55859 c 0,0.78516 -0.3125,1.53907 -0.86719,2.09375 -0.55469,0.5586 -1.3125,0.86719 -2.09765,0.86719 z m 0,0"
         fill-opacity="1"
         fill-rule="nonzero"
         id="path23"
         style="fill:url(#linearGradient62);fill-opacity:1" /></g><g
       clip-path="url(#4fd87e83ed)"
       id="g27"
       transform="translate(-233.18695,110.10038)"
       style="fill:url(#linearGradient65);fill-opacity:1"><path
         fill="#000000"
         d="m 66.113281,212.10156 c -0.519531,0 -1.03125,-0.13672 -1.480469,-0.39453 L 18.203125,184.92578 c -0.449219,-0.25781 -0.824219,-0.63281 -1.085937,-1.08203 -0.257813,-0.45313 -0.394532,-0.96094 -0.394532,-1.48047 v -53.5625 c 0,-0.51953 0.136719,-1.03125 0.394532,-1.48047 0.261718,-0.44922 0.636718,-0.82422 1.085937,-1.08203 L 64.632812,99.457031 c 0.449219,-0.257812 0.960938,-0.398437 1.480469,-0.398437 0.523438,0 1.035157,0.140625 1.484375,0.398437 l 46.429684,26.781249 c 0.44922,0.25781 0.82422,0.63281 1.08594,1.08203 0.25781,0.44922 0.39453,0.96094 0.39453,1.48047 v 53.5625 c 0,0.51953 -0.13672,1.02734 -0.39453,1.48047 -0.26172,0.44922 -0.63672,0.82422 -1.08594,1.08203 l -46.429684,26.78125 c -0.449218,0.25781 -0.960937,0.39453 -1.484375,0.39453 z M 22.652344,180.65234 66.113281,205.71875 109.57813,180.65234 V 130.51172 L 66.113281,105.44141 22.652344,130.51172 Z m 0,0"
         fill-opacity="1"
         fill-rule="nonzero"
         id="path27"
         style="fill:url(#linearGradient64);fill-opacity:1" /></g><g
       clip-path="url(#6bd1ad4bec)"
       id="g28"
       transform="translate(-233.18695,110.10038)"
       style="fill:url(#linearGradient67);fill-opacity:1"><path
         fill="#000000"
         d="m 66.113281,158.54297 c -0.519531,0 -1.03125,-0.13672 -1.480469,-0.39453 L 18.203125,131.36719 c -0.335937,-0.19532 -0.632813,-0.45313 -0.871094,-0.76172 -0.234375,-0.3086 -0.410156,-0.66016 -0.511719,-1.03516 -0.09766,-0.3789 -0.125,-0.76953 -0.07422,-1.15625 0.05078,-0.38281 0.175781,-0.75781 0.371094,-1.09375 0.195312,-0.33593 0.457031,-0.63281 0.765624,-0.86718 0.308594,-0.23829 0.660157,-0.41016 1.035157,-0.51172 0.378906,-0.10157 0.769531,-0.12891 1.15625,-0.0742 0.386719,0.0469 0.757812,0.17578 1.09375,0.37109 L 66.113279,152.16018 111.0625,126.2383 c 0.67969,-0.39453 1.48828,-0.5 2.25,-0.29687 0.75781,0.20312 1.40625,0.69922 1.80078,1.3789 0.39063,0.67969 0.5,1.48828 0.29688,2.25 -0.20703,0.75781 -0.70313,1.40625 -1.38282,1.79688 l -46.429686,26.78125 c -0.449218,0.25781 -0.960937,0.39453 -1.484375,0.39453 z m 0,0"
         fill-opacity="1"
         fill-rule="nonzero"
         id="path28"
         style="fill:url(#linearGradient66);fill-opacity:1" /></g><g
       clip-path="url(#0d50daea0e)"
       id="g29"
       transform="translate(-233.18695,110.10038)"
       style="fill:url(#linearGradient69);fill-opacity:1"><path
         fill="#000000"
         d="m 66.113281,212.10156 c -0.785156,0 -1.539062,-0.30859 -2.09375,-0.86719 -0.558593,-0.55468 -0.871093,-1.30859 -0.871093,-2.09375 v -53.55859 c 0,-0.78516 0.3125,-1.53906 0.871093,-2.09375 0.554688,-0.55859 1.308594,-0.86719 2.09375,-0.86719 0.789063,0 1.542969,0.3086 2.097657,0.86719 0.558593,0.55469 0.871093,1.30859 0.871093,2.09375 v 53.55859 c 0,0.78516 -0.3125,1.53907 -0.871093,2.09375 -0.554688,0.5586 -1.308594,0.86719 -2.097657,0.86719 z m 0,0"
         fill-opacity="1"
         fill-rule="nonzero"
         id="path29"
         style="fill:url(#linearGradient68);fill-opacity:1" /></g><g
       clip-path="url(#5ac9f15132)"
       id="g30"
       transform="translate(-233.18695,110.10038)"
       style="fill:url(#linearGradient71);fill-opacity:1"><path
         fill="#000000"
         d="m 158.97266,212.10156 c -0.51954,0 -1.03125,-0.13672 -1.48047,-0.39453 L 111.0625,184.92578 c -0.45312,-0.25781 -0.82422,-0.63281 -1.08594,-1.08203 -0.26172,-0.45313 -0.39843,-0.96094 -0.39843,-1.48047 v -53.5625 c 0,-0.51953 0.13671,-1.03125 0.39843,-1.48047 0.26172,-0.44922 0.63282,-0.82422 1.08594,-1.08203 l 46.42969,-26.781249 c 0.44922,-0.257812 0.96093,-0.398437 1.48047,-0.398437 0.51953,0 1.03125,0.140625 1.48437,0.398437 l 46.42969,26.781249 c 0.44922,0.25781 0.82422,0.63281 1.08203,1.08203 0.26172,0.44922 0.39844,0.96094 0.39844,1.48047 v 53.5625 c 0,0.51953 -0.13672,1.02734 -0.39844,1.48047 -0.25781,0.44922 -0.63281,0.82422 -1.08203,1.08203 l -46.42969,26.78125 c -0.45312,0.25781 -0.96484,0.39453 -1.48437,0.39453 z m -43.46485,-31.44922 43.46485,25.06641 43.46484,-25.06641 v -50.14062 l -43.46484,-25.07031 -43.46485,25.07031 z m 0,0"
         fill-opacity="1"
         fill-rule="nonzero"
         id="path30"
         style="fill:url(#linearGradient70);fill-opacity:1" /></g><g
       clip-path="url(#f1f2382feb)"
       id="g31"
       transform="translate(-233.18695,110.10038)"
       style="fill:url(#linearGradient73);fill-opacity:1"><path
         fill="#000000"
         d="m 158.97266,158.54297 c -0.51954,0 -1.03125,-0.13672 -1.48047,-0.39453 L 111.0625,131.36719 c -0.33984,-0.19532 -0.63281,-0.45313 -0.87109,-0.76172 -0.23828,-0.3086 -0.41016,-0.66016 -0.51172,-1.03516 -0.10156,-0.3789 -0.125,-0.76953 -0.0742,-1.15625 0.0508,-0.38281 0.17578,-0.75781 0.37109,-1.09375 0.19532,-0.33593 0.45313,-0.63281 0.76172,-0.86718 0.3086,-0.23829 0.66406,-0.41016 1.03906,-0.51172 0.375,-0.10157 0.76954,-0.12891 1.15235,-0.0742 0.38672,0.0469 0.76172,0.17578 1.09765,0.37109 l 44.94532,25.92188 44.94531,-25.92188 c 0.33984,-0.19531 0.71094,-0.32422 1.09765,-0.37109 0.38672,-0.0547 0.77735,-0.0273 1.15235,0.0742 0.3789,0.10156 0.73047,0.27343 1.03906,0.51172 0.30859,0.23437 0.57031,0.53125 0.76172,0.86718 0.19531,0.33594 0.32422,0.71094 0.375,1.09375 0.0508,0.38672 0.0234,0.77735 -0.0781,1.15625 -0.10156,0.375 -0.27343,0.72656 -0.51171,1.03516 -0.23438,0.30859 -0.53125,0.5664 -0.86719,0.76172 l -46.42969,26.78125 c -0.45312,0.25781 -0.96484,0.39453 -1.48437,0.39453 z m 0,0"
         fill-opacity="1"
         fill-rule="nonzero"
         id="path31"
         style="fill:url(#linearGradient72);fill-opacity:1" /></g><g
       clip-path="url(#cadaab14a1)"
       id="g32"
       transform="translate(-233.18695,110.10038)"
       style="fill:url(#linearGradient75);fill-opacity:1"><path
         fill="#000000"
         d="m 158.97266,212.10156 c -0.78516,0 -1.53907,-0.30859 -2.09766,-0.86719 -0.55469,-0.55468 -0.86719,-1.30859 -0.86719,-2.09375 v -53.55859 c 0,-0.78516 0.3125,-1.53906 0.86719,-2.09375 0.55859,-0.55859 1.3125,-0.86719 2.09766,-0.86719 0.78515,0 1.54296,0.3086 2.09765,0.86719 0.55469,0.55469 0.86719,1.30859 0.86719,2.09375 v 53.55859 c 0,0.78516 -0.3125,1.53907 -0.86719,2.09375 -0.55469,0.5586 -1.3125,0.86719 -2.09765,0.86719 z m 0,0"
         fill-opacity="1"
         fill-rule="nonzero"
         id="path32"
         style="fill:url(#linearGradient74);fill-opacity:1" /></g></g><path
     style="fill:#000000;stroke:none;stroke-width:0.591713"
     d="m 111.55737,36.762037 c -2.87396,0.377376 -5.67594,0.448809 -8.51595,1.19552 -8.319846,2.18755 -15.78399,7.392792 -20.667669,14.478425 -8.424128,12.222416 -8.652567,28.811777 -0.360075,41.174205 2.530467,3.772443 5.74779,7.017203 9.452674,9.638393 3.238602,2.29129 6.934567,4.03852 10.74828,5.12582 4.95902,1.41386 10.11124,1.75776 15.21295,1.0869 17.97657,-2.36381 32.29587,-18.950643 31.49754,-37.182312 -0.68589,-15.663749 -11.04394,-29.67046 -26.28875,-34.063799 -2.86275,-0.825008 -5.86505,-1.370417 -8.84666,-1.405875 -0.74884,-0.0096 -1.47938,-0.146304 -2.23234,-0.04726 m -8.35059,2.858679 -0.0826,0.0826 0.0826,-0.0826 m -0.16546,0.0826 c -0.81935,1.006531 -2.06737,1.758796 -2.96901,2.72839 -1.523475,1.638293 -2.68747,3.745897 -3.368811,5.870226 -3.1729,9.892766 3.803611,20.250201 14.026991,21.472981 4.37725,0.523511 8.98905,-1.021802 12.31918,-3.873169 0.97122,-0.831601 1.86278,-1.759326 2.61033,-2.800257 0.27085,-0.377125 0.66495,-1.326434 1.12763,-1.461954 0.49967,-0.146305 1.21414,0.04473 1.71889,0.116751 1.49968,0.213685 2.96184,0.563625 4.38199,1.09309 7.01166,2.614055 11.53948,8.751053 12.89799,15.961231 h -0.0826 c -2.77216,-9.76876 -14.04475,-14.908032 -23.15024,-10.355291 -1.44031,0.720126 -2.81848,1.612681 -3.96861,2.749115 -3.79967,3.754508 -5.88398,8.944132 -5.09075,14.303178 0.19588,1.323421 0.52745,2.648623 1.04042,3.885932 0.19032,0.458987 0.82462,1.326933 0.7334,1.818945 -0.0892,0.481633 -0.62192,1.023873 -0.91042,1.405553 -0.95844,1.267865 -2.07092,2.439217 -3.29645,3.451818 -3.97479,3.284226 -9.16306,4.912648 -14.303479,4.560628 -2.134072,-0.14606 -4.100382,-0.740447 -6.118243,-1.398142 v -0.0826 c 1.277055,0.172132 2.510221,0.482846 3.803228,0.571363 2.228045,0.152701 4.63616,-0.362865 6.697004,-1.187229 8.49926,-3.399823 12.72808,-13.49413 9.02356,-21.872844 -1.88449,-4.26227 -5.51126,-7.602294 -9.93303,-9.094392 -1.314709,-0.443649 -2.680845,-0.641789 -4.051274,-0.803499 -0.418883,-0.04945 -1.183569,0.140164 -1.518135,-0.156375 -0.398663,-0.353139 -0.602898,-1.199957 -0.796873,-1.686365 -0.633291,-1.588025 -1.050038,-3.264578 -1.253023,-4.960754 -0.775215,-6.478388 1.611795,-13.198319 6.544494,-17.540786 1.161391,-1.022438 2.451641,-2.097552 3.885901,-2.715584 M 90.474176,99.094485 c 0.06397,0 0.01274,0.04136 -0.02765,0.02753 z"
     id="path38" /></svg>
